<svg id="visual" viewBox="0 0 1920 1080" width="1920" height="1080" xmlns="http://www.w3.org/2000/svg" xmlns:xlink="http://www.w3.org/1999/xlink" version="1.1"><rect x="0" y="0" width="1920" height="1080" fill="#bdf3d7"></rect><defs><linearGradient id="grad1_0" x1="43.8%" y1="0%" x2="100%" y2="100%"><stop offset="14.444444444444446%" stop-color="#001122" stop-opacity="1"></stop><stop offset="85.55555555555554%" stop-color="#001122" stop-opacity="1"></stop></linearGradient></defs><defs><linearGradient id="grad1_1" x1="43.8%" y1="0%" x2="100%" y2="100%"><stop offset="14.444444444444446%" stop-color="#001122" stop-opacity="1"></stop><stop offset="85.55555555555554%" stop-color="#bdf3d7" stop-opacity="1"></stop></linearGradient></defs><defs><linearGradient id="grad2_0" x1="0%" y1="0%" x2="56.3%" y2="100%"><stop offset="14.444444444444446%" stop-color="#001122" stop-opacity="1"></stop><stop offset="85.55555555555554%" stop-color="#001122" stop-opacity="1"></stop></linearGradient></defs><defs><linearGradient id="grad2_1" x1="0%" y1="0%" x2="56.3%" y2="100%"><stop offset="14.444444444444446%" stop-color="#bdf3d7" stop-opacity="1"></stop><stop offset="85.55555555555554%" stop-color="#001122" stop-opacity="1"></stop></linearGradient></defs><g transform="translate(1920, 0)"><path d="M0 648C-91.9 645.3 -183.8 642.7 -248 598.7C-312.2 554.6 -348.7 469.2 -408 408C-467.3 346.8 -549.3 309.7 -593.1 245.7C-636.9 181.7 -642.5 90.9 -648 0L0 0Z" fill="#447a84"></path><path d="M0 324C-45.9 322.7 -91.9 321.3 -124 299.3C-156.1 277.3 -174.4 234.6 -204 204C-233.6 173.4 -274.7 154.8 -296.6 122.8C-318.5 90.9 -321.2 45.4 -324 0L0 0Z" fill="#001122"></path></g><g transform="translate(0, 1080)"><path d="M0 -648C90.3 -645.7 180.6 -643.4 248 -598.7C315.4 -553.9 359.8 -466.8 396 -396C432.2 -325.2 460.1 -270.7 500.7 -207.4C541.4 -144.1 594.7 -72.1 648 0L0 0Z" fill="#447a84"></path><path d="M0 -324C45.2 -322.9 90.3 -321.7 124 -299.3C157.7 -277 179.9 -233.4 198 -198C216.1 -162.6 230.1 -135.3 250.4 -103.7C270.7 -72.1 297.3 -36 324 0L0 0Z" fill="#001122"></path></g></svg>